<svg viewBox="0 0 512 512" xml:space="preserve" xmlns="http://www.w3.org/2000/svg"><path d="M357 139.9h21.4c7.4 0 11 2.7 10.6 10-.3 7-1.7 14.2-3.9 20.9-2.1 6.3-7.2 9.6-14.4 9.2-6.6-.3-13.3-.1-20.6-.1-1.7 9.2-3.4 18.3-5 27.4-5.7 31.6-10.6 63.4-17.2 94.8-6.4 30.6-28.9 49.8-60 51.6-24.3 1.4-48.6.8-72.9 1.1-9.8.1-19.7.1-29.5 0-6.1-.1-7.6-1.8-6.3-7.6 2.1-9.1 4.2-18.2 6.4-27.2 1.8-7.3 5.5-10.1 13.3-10.1 22.3 0 44.7.1 67-.1 4.3 0 8.7-.5 12.8-1.7 11.6-3.4 16.9-12.2 19-23.4 4.2-22.9 8.3-45.9 12.4-68.8 1.9-10.5 3.8-21 5.7-31.4.2-1.3.2-2.6.3-4.5h-29.6c-7.1 0-7.7-.5-9.4-7.5-1.8-7.6-3.8-15.2-5.6-22.8-1.9-7.8-.4-9.8 7.5-9.8 13 0 26-.3 39 .1 4.8.2 6.1-1.5 6.9-5.9 1.7-9.8 3.3-19.8 6.1-29.3 12.2-40.6 44.6-61.1 85.8-59.8 11.1.4 15 3.7 17.8 14.5 1.2 4.5 2.2 9.1 2.7 13.7.8 7.2-2 10.5-9.1 11.6-3.1.5-6.3.8-9.5.7-21.1-.9-32 10.3-36.6 28.4-2.3 8.4-3.4 17-5.1 26z" fill="#ffffff" class="fill-000000"></path><path d="M128.2 139.8h95c6.6 0 7.5.8 8.9 7.4.7 3.1 1.5 6.2 2 9.3.9 4.5-1 6.9-5.7 7.3-1.5.1-3 0-4.5 0-52.3 0-104.7.3-157-.2-11.5-.1-21.1 9.2-13.2 22.5 8.7 14.7 17.2 29.7 25.6 44.6 5.8 10.4 14.4 15.6 26.4 15.6 41.3-.1 82.7 0 124 0 2.8 0 5.6.3 8.4.7 4.6.7 7.5 3.5 8.6 7.9 1.9 7.7 3.9 15.5 5.4 23.3 1.5 7.9-2.7 12.8-10.7 13.5-1.7.1-3.3.1-5 .1-47.8 0-95.7-.3-143.5.2-14.9.1-24.8-5.9-31.9-18.7-15.7-28.2-32-56.1-48-84.1-2.1-3.7-4.3-7.6-5.8-11.6-6.8-19 5.8-37.6 26-37.7 31.7-.2 63.3 0 95-.1zM280.4 370.9c17.3.1 31.6 14.4 31.4 31.5-.2 17.3-14.4 31.1-31.9 31.1s-31.5-14-31.5-31.3c0-17.6 14.1-31.4 32-31.3zM175.7 370.9c17.7 0 31.5 13.5 31.6 31.1.1 17.7-13.8 31.6-31.7 31.6-17.5-.1-31.5-14-31.4-31.4 0-17.5 14-31.3 31.5-31.3zM338.3 395.9c.3-11 .3-10.8 10.5-10.5 41.1 1.3 82.2 2.6 123.4 3.8 8.6.2 17.3 0 25.9 0v1.7c-53.1 1.7-106.3 3.3-159.8 5zM419.3 416.7c-27.8 1.8-55.7 3.6-84.3 5.5.4-3.7.8-7 1.3-10.9 27.8 1.6 55.4 3.1 83 4.7v.7z" fill="#ffffff" class="fill-000000"></path></svg>